<svg width="202" height="36" viewBox="0 0 202 36" fill="none" xmlns="http://www.w3.org/2000/svg">
<g filter="url(#filter0_d_1_1742)">
<rect x="4" y="1" width="193.65" height="28.3505" rx="3" fill="#06C755" shape-rendering="crispEdges"/>
<rect x="4" y="1" width="193.65" height="28.3505" rx="3" fill="url(#paint0_linear_1_1742)" fill-opacity="0.15" shape-rendering="crispEdges"/>
<g clip-path="url(#clip0_1_1742)">
<path fill-rule="evenodd" clip-rule="evenodd" d="M41.4488 17.607C40.0323 19.248 36.8704 21.2388 36.1495 21.5441C35.4598 21.8362 35.5284 21.3947 35.5578 21.2056L35.5614 21.1816C35.5741 21.1137 35.6057 20.9208 35.6563 20.6028C35.6816 20.4247 35.7069 20.1575 35.6373 19.9858C35.5614 19.795 35.2642 19.6996 35.0429 19.6487C31.7988 19.2226 29.4021 16.9392 29.4021 14.2169C29.4021 11.183 32.4248 8.70874 36.1495 8.70874C39.8679 8.70874 42.897 11.183 42.897 14.2169C42.897 15.4317 42.4227 16.5257 41.4488 17.607ZM40.5466 15.8644H38.6495C38.5799 15.8644 38.523 15.8071 38.523 15.7372V15.7308V12.7732C38.523 12.7032 38.5799 12.646 38.6495 12.646H40.5466C40.6161 12.646 40.6731 12.7032 40.6731 12.7732V13.2566C40.6731 13.3266 40.6161 13.3838 40.5466 13.3838H39.2565V13.8863H40.5466C40.6161 13.8863 40.6731 13.9435 40.6731 14.0135V14.4969C40.6731 14.5669 40.6161 14.6241 40.5466 14.6241H39.2565V15.1266H40.5466C40.6161 15.1266 40.6731 15.1838 40.6731 15.2538V15.7372C40.6731 15.8071 40.6161 15.8644 40.5466 15.8644ZM31.6365 15.8645H31.6428H33.5336C33.6031 15.8645 33.6601 15.8073 33.6601 15.7373V15.2539C33.6601 15.1839 33.6031 15.1267 33.5336 15.1267H32.2435V12.7733C32.2435 12.7034 32.1866 12.6461 32.1171 12.6461H31.6365C31.5669 12.6461 31.51 12.7034 31.51 12.7733V15.7309V15.7373C31.51 15.8073 31.5669 15.8645 31.6365 15.8645ZM34.6717 12.646H34.1912C34.1214 12.646 34.0648 12.703 34.0648 12.7732V15.7372C34.0648 15.8074 34.1214 15.8644 34.1912 15.8644H34.6717C34.7415 15.8644 34.7982 15.8074 34.7982 15.7372V12.7732C34.7982 12.703 34.7415 12.646 34.6717 12.646ZM38.0614 15.7372V12.7732C38.0614 12.7032 38.0044 12.646 37.9286 12.646H37.4543C37.3847 12.646 37.3215 12.7032 37.3215 12.7732V14.5287L35.9745 12.7032C35.9745 12.699 35.9724 12.6948 35.9682 12.6905L35.9555 12.6778L35.9492 12.6714H35.9429C35.9429 12.6672 35.9408 12.6651 35.9366 12.6651V12.6587H35.9239L35.9176 12.6524H35.9113C35.9071 12.6524 35.905 12.6502 35.905 12.646H35.8986H35.8923H35.886H35.8797H35.8733H35.867H35.3927C35.3232 12.646 35.2599 12.7032 35.2599 12.7732V15.7372C35.2599 15.8071 35.3232 15.8644 35.3927 15.8644H35.867C35.9429 15.8644 35.9998 15.8071 35.9998 15.7372V13.9753L37.3468 15.8071C37.3552 15.8199 37.3657 15.8305 37.3784 15.8389H37.3847C37.3847 15.8432 37.3868 15.8453 37.391 15.8453L37.3974 15.8517H37.4037H37.41V15.858H37.4227C37.4311 15.8623 37.4416 15.8644 37.4543 15.8644H37.9286C38.0044 15.8644 38.0614 15.8071 38.0614 15.7372Z" fill="white"/>
</g>
<path d="M54.1976 11.8053C53.3776 12.9953 51.8676 14.4053 50.2376 15.3753C50.0776 15.0953 49.7376 14.6653 49.4776 14.4253C51.1776 13.4853 52.7976 11.8753 53.5376 10.6153H54.7576C55.8276 12.1653 57.4676 13.5753 59.0476 14.3153C58.7376 14.6053 58.4676 15.0053 58.2476 15.3653C56.7276 14.4653 55.0576 12.9953 54.1976 11.8053ZM52.0876 13.7453H56.3476V14.8553H52.0876V13.7453ZM50.7176 15.8153H56.5076V16.9453H50.7176V15.8153ZM56.3076 15.8153H56.4776L56.6876 15.7553L57.6476 16.0353C57.1576 17.2653 56.4276 18.8353 55.8176 20.1053L54.5376 19.7653C55.1776 18.5053 55.9476 16.8453 56.3076 15.9453V15.8153ZM65.7776 11.1153C65.7476 11.2853 65.7176 11.8153 65.7076 11.9753C65.6776 12.6353 65.6976 14.6753 65.7076 15.4753L64.4576 15.0553C64.4576 14.4353 64.4576 12.5153 64.4176 11.9853C64.3876 11.5853 64.3476 11.2453 64.3276 11.1153H65.7776ZM60.1176 12.3653C61.6076 12.3653 64.2476 12.2853 65.4976 12.2853C66.5176 12.2853 68.0376 12.2753 68.5976 12.2853L68.5776 13.4653C67.9576 13.4353 66.9376 13.4053 65.4676 13.4053C63.6476 13.4053 61.6576 13.4853 60.1476 13.5653L60.1176 12.3653ZM65.5376 15.3253C65.5376 16.9553 64.9376 17.7653 63.7876 17.7653C63.0176 17.7653 62.0576 17.1553 62.0576 15.9353C62.0576 14.8053 62.9776 14.0653 64.0576 14.0653C65.3776 14.0653 66.0676 15.0353 66.0676 16.2753C66.0676 17.5853 65.2976 19.2353 62.8576 19.9253L61.7976 18.8653C63.4976 18.4953 64.8276 17.8253 64.8276 16.0753C64.8276 15.4253 64.4776 15.1153 64.0376 15.1153C63.6476 15.1153 63.2576 15.3853 63.2576 15.9153C63.2576 16.3653 63.6276 16.6553 64.0376 16.6553C64.5076 16.6553 64.9176 16.2553 64.5976 15.0653L65.5376 15.3253ZM75.7876 13.3953C76.0576 13.7753 76.4476 14.5153 76.6376 14.8853L75.8076 15.2353C75.5976 14.8153 75.2576 14.1153 74.9976 13.7153L75.7876 13.3953ZM76.9976 12.9153C77.2576 13.2953 77.6576 14.0253 77.8476 14.3953L77.0376 14.7453C76.8176 14.3253 76.4676 13.6453 76.1876 13.2653L76.9976 12.9153ZM76.4276 11.9753C76.1176 12.2053 75.7876 12.4653 75.5476 12.6553C74.8976 13.1753 73.5776 14.1953 72.9176 14.7753C72.3776 15.2253 72.3876 15.3453 72.9376 15.8153C73.6876 16.4453 75.5776 17.9353 76.5976 18.9253L75.4376 20.0053C75.1576 19.6853 74.8576 19.3753 74.5676 19.0753C73.9576 18.4453 72.4876 17.1853 71.5676 16.4153C70.5776 15.5653 70.6576 15.0253 71.6576 14.1953C72.4476 13.5553 73.8076 12.4453 74.4876 11.7853C74.7676 11.5053 75.0976 11.1753 75.2576 10.9353L76.4276 11.9753ZM80.1576 19.1753V11.7753H81.6376V17.9353H84.6476V19.1753H80.1576ZM85.9388 19.1753V11.7753H87.4188V19.1753H85.9388ZM89.2396 19.1753V11.7753H90.7396L92.8896 15.7253L93.6396 17.3253H93.6896C93.6096 16.5553 93.4896 15.5653 93.4896 14.7253V11.7753H94.8996V19.1753H93.3896L91.2496 15.2153L90.4996 13.6353H90.4496C90.5196 14.4253 90.6396 15.3553 90.6396 16.2153V19.1753H89.2396ZM96.7298 19.1753V11.7753H101.27V13.0053H98.2098V14.7153H100.8V15.9653H98.2098V17.9353H101.38V19.1753H96.7298ZM102.662 12.3253C103.052 12.3153 103.452 12.2953 103.642 12.2753C104.472 12.1953 106.122 12.0553 107.952 11.8953C108.992 11.8153 110.082 11.7453 110.792 11.7153L110.802 13.0053C110.262 13.0053 109.402 13.0153 108.862 13.1353C107.662 13.4553 106.752 14.7553 106.752 15.9453C106.752 17.5853 108.292 18.1853 109.982 18.2653L109.512 19.6353C107.422 19.5053 105.442 18.3753 105.442 16.2053C105.442 14.7753 106.252 13.6353 106.922 13.1253C105.992 13.2253 103.942 13.4453 102.792 13.6953L102.662 12.3253ZM109.372 13.9853C109.612 14.3353 109.972 14.9453 110.162 15.3453L109.412 15.6753C109.152 15.1353 108.942 14.7353 108.632 14.2953L109.372 13.9853ZM110.482 13.5253C110.742 13.8753 111.122 14.4653 111.332 14.8553L110.582 15.2153C110.312 14.6753 110.082 14.2953 109.762 13.8553L110.482 13.5253ZM114.322 10.6853L115.502 11.0253C114.952 12.1353 114.062 13.2153 113.222 13.8753C113.002 13.6553 112.522 13.2753 112.242 13.0953C113.082 12.5353 113.882 11.6153 114.322 10.6853ZM114.242 11.7353H121.132V12.7953H113.952L114.242 11.7353ZM112.452 14.0653H121.492V15.1353H112.452V14.0653ZM112.622 16.4153H121.352V17.4853H112.622V16.4153ZM115.582 12.1153H116.592V16.9753H115.582V12.1153ZM113.812 12.1153H114.872V16.9853H113.812V12.1153ZM117.322 12.1153H118.322V16.9853H117.322V12.1153ZM119.082 12.1153H120.182V16.9853H119.082V12.1153ZM115.282 18.0453L116.392 17.9153C116.522 18.5253 116.642 19.3153 116.652 19.8053L115.472 19.9753C115.472 19.4853 115.402 18.6653 115.282 18.0453ZM117.272 18.0653L118.402 17.8753C118.652 18.4653 118.902 19.2553 118.992 19.7453L117.792 19.9853C117.722 19.4953 117.502 18.6853 117.272 18.0653ZM119.262 18.0153L120.412 17.6553C120.862 18.2653 121.432 19.1153 121.682 19.6753L120.462 20.0853C120.242 19.5353 119.712 18.6553 119.262 18.0153ZM113.482 17.6953L114.652 17.9753C114.422 18.7453 113.992 19.5653 113.512 20.0853L112.352 19.6253C112.812 19.2053 113.252 18.4253 113.482 17.6953ZM123.862 10.7353H124.972V20.0553H123.862V10.7353ZM122.352 14.0153H126.452V15.1353H122.352V14.0153ZM123.652 14.6153L124.312 14.9353C123.992 16.2753 123.372 18.0153 122.712 18.9753C122.602 18.6053 122.342 18.0753 122.162 17.7353C122.762 16.9953 123.372 15.6053 123.652 14.6153ZM124.952 15.1953C125.242 15.4553 126.212 16.6153 126.432 16.8953L125.692 17.8353C125.432 17.2653 124.762 16.1553 124.402 15.6653L124.952 15.1953ZM122.332 11.5053L123.172 11.2853C123.432 12.0153 123.632 12.9653 123.682 13.5953L122.782 13.8353C122.762 13.2053 122.572 12.2353 122.332 11.5053ZM125.632 11.2353L126.642 11.4553C126.382 12.2653 126.082 13.2153 125.832 13.8053L125.082 13.5953C125.282 12.9553 125.522 11.9453 125.632 11.2353ZM129.412 10.6753H130.542V20.0653H129.412V10.6753ZM126.422 16.9353L131.562 16.0153L131.742 17.1253L126.612 18.0553L126.422 16.9353ZM126.992 12.0453L127.582 11.2253C128.142 11.5653 128.852 12.0653 129.182 12.4353L128.552 13.3453C128.252 12.9553 127.552 12.4053 126.992 12.0453ZM126.542 14.5653L127.102 13.7053C127.682 14.0153 128.432 14.4953 128.792 14.8653L128.192 15.8153C127.852 15.4453 127.122 14.9053 126.542 14.5653ZM137.182 13.5953H140.762V14.6753H137.182V13.5953ZM137.192 15.9553H140.772V17.0453H137.192V15.9553ZM137.182 18.3253H140.772V19.4053H137.182V18.3253ZM136.612 11.2253H141.332V19.9353H140.122V12.3553H137.762V19.9953H136.612V11.2253ZM132.412 12.7453H136.262V13.8853H132.412V12.7453ZM133.862 10.6853H135.012V20.0753H133.862V10.6853ZM133.792 13.5153L134.512 13.7653C134.182 15.3953 133.522 17.3153 132.732 18.3553C132.622 18.0153 132.342 17.5253 132.162 17.2253C132.882 16.3553 133.522 14.7953 133.792 13.5153ZM134.922 14.3953C135.212 14.6753 136.192 15.8853 136.412 16.1553L135.732 17.1253C135.442 16.5353 134.732 15.4453 134.372 14.9453L134.922 14.3953ZM148.182 13.4853L148.922 12.6953C149.782 13.1853 151.022 13.9353 151.632 14.4453L150.842 15.3453C150.282 14.8253 149.072 14.0253 148.182 13.4853ZM148.872 14.9253H149.472V16.4453C149.472 17.1153 149.902 18.3853 151.732 19.0653C151.512 19.3453 151.192 19.8053 151.032 20.0953C149.772 19.6153 149.052 18.4953 148.862 17.8853C148.662 18.4953 147.862 19.5753 146.482 20.0953C146.352 19.8253 146.032 19.3453 145.822 19.1153C147.742 18.4353 148.252 17.1253 148.252 16.4453V14.9253H148.872ZM148.332 10.6853H149.512C149.412 13.0753 149.092 14.5953 146.672 15.4253C146.562 15.1353 146.262 14.7053 146.012 14.4753C148.102 13.8353 148.262 12.6753 148.332 10.6853ZM146.862 11.2753L147.842 11.4753C147.742 12.1453 147.482 12.8853 147.052 13.3353L146.112 12.9353C146.482 12.5753 146.762 11.9053 146.862 11.2753ZM146.752 15.6253L147.792 15.8353C147.662 16.5953 147.352 17.4053 146.862 17.8953L145.872 17.3853C146.302 17.0153 146.612 16.3053 146.752 15.6253ZM150.392 11.2153L151.552 11.5753C151.212 12.1653 150.852 12.7853 150.572 13.1953L149.682 12.8653C149.942 12.4153 150.242 11.7153 150.392 11.2153ZM150.452 15.5453L151.632 15.9153C151.282 16.5353 150.892 17.2053 150.582 17.6353L149.652 17.2953C149.932 16.8253 150.272 16.0853 150.452 15.5453ZM142.742 13.7553H145.762V14.6553H142.742V13.7553ZM142.772 10.9953H145.732V11.9053H142.772V10.9953ZM142.742 15.1153H145.762V16.0253H142.742V15.1153ZM142.262 12.3453H146.092V13.2953H142.262V12.3453ZM143.262 16.5053H145.772V19.5453H143.262V18.5953H144.752V17.4553H143.262V16.5053ZM142.722 16.5053H143.732V19.9453H142.722V16.5053ZM158.502 11.1153C158.472 11.2853 158.442 11.8153 158.432 11.9753C158.402 12.6353 158.422 14.6753 158.432 15.4753L157.182 15.0553C157.182 14.4353 157.182 12.5153 157.142 11.9853C157.112 11.5853 157.072 11.2453 157.052 11.1153H158.502ZM152.842 12.3653C154.332 12.3653 156.972 12.2853 158.222 12.2853C159.242 12.2853 160.762 12.2753 161.322 12.2853L161.302 13.4653C160.682 13.4353 159.662 13.4053 158.192 13.4053C156.372 13.4053 154.382 13.4853 152.872 13.5653L152.842 12.3653ZM158.262 15.3253C158.262 16.9553 157.662 17.7653 156.512 17.7653C155.742 17.7653 154.782 17.1553 154.782 15.9353C154.782 14.8053 155.702 14.0653 156.782 14.0653C158.102 14.0653 158.792 15.0353 158.792 16.2753C158.792 17.5853 158.022 19.2353 155.582 19.9253L154.522 18.8653C156.222 18.4953 157.552 17.8253 157.552 16.0753C157.552 15.4253 157.202 15.1153 156.762 15.1153C156.372 15.1153 155.982 15.3853 155.982 15.9153C155.982 16.3653 156.352 16.6553 156.762 16.6553C157.232 16.6553 157.642 16.2553 157.322 15.0653L158.262 15.3253ZM164.172 11.5653C164.452 11.5953 164.792 11.6153 165.072 11.6153C165.612 11.6153 167.742 11.5653 168.312 11.5153C168.732 11.4853 168.962 11.4453 169.082 11.4053L169.722 12.3053C169.492 12.4553 169.252 12.5953 169.032 12.7653C168.492 13.1453 167.442 14.0253 166.802 14.5253C167.142 14.4353 167.442 14.4153 167.752 14.4153C169.452 14.4153 170.742 15.4753 170.742 16.9253C170.742 18.5053 169.542 19.7553 167.122 19.7553C165.732 19.7553 164.682 19.1253 164.682 18.1153C164.682 17.3053 165.422 16.5653 166.482 16.5653C167.852 16.5653 168.612 17.4853 168.642 18.5853L167.472 18.7353C167.452 18.0153 167.072 17.5153 166.482 17.5153C166.112 17.5153 165.862 17.7453 165.862 18.0053C165.862 18.3753 166.272 18.6253 166.882 18.6253C168.572 18.6253 169.432 17.9853 169.432 16.9153C169.432 16.0053 168.532 15.3953 167.362 15.3953C165.822 15.3953 164.832 16.2153 163.762 17.4253L162.852 16.4853C163.562 15.9253 164.772 14.9053 165.352 14.4153C165.912 13.9553 166.962 13.1153 167.452 12.6753C166.942 12.6953 165.562 12.7453 165.022 12.7853C164.752 12.8053 164.442 12.8253 164.212 12.8653L164.172 11.5653Z" fill="white"/>
</g>
<defs>
<filter id="filter0_d_1_1742" x="0.334013" y="0.0835032" width="200.982" height="35.6826" filterUnits="userSpaceOnUse" color-interpolation-filters="sRGB">
<feFlood flood-opacity="0" result="BackgroundImageFix"/>
<feColorMatrix in="SourceAlpha" type="matrix" values="0 0 0 0 0 0 0 0 0 0 0 0 0 0 0 0 0 0 127 0" result="hardAlpha"/>
<feOffset dy="2.74949"/>
<feGaussianBlur stdDeviation="1.83299"/>
<feComposite in2="hardAlpha" operator="out"/>
<feColorMatrix type="matrix" values="0 0 0 0 0 0 0 0 0 0 0 0 0 0 0 0 0 0 0.12 0"/>
<feBlend mode="normal" in2="BackgroundImageFix" result="effect1_dropShadow_1_1742"/>
<feBlend mode="normal" in="SourceGraphic" in2="effect1_dropShadow_1_1742" result="shape"/>
</filter>
<linearGradient id="paint0_linear_1_1742" x1="110.756" y1="2.75004" x2="110.756" y2="6.3376" gradientUnits="userSpaceOnUse">
<stop stop-color="white" stop-opacity="0.5"/>
<stop offset="1" stop-color="#437549" stop-opacity="0"/>
</linearGradient>
<clipPath id="clip0_1_1742">
<rect width="13.4949" height="13.4949" fill="white" transform="translate(29.4021 8.42773)"/>
</clipPath>
</defs>
</svg>
